<svg width="32" height="32" viewBox="0 0 32 32" fill="none" xmlns="http://www.w3.org/2000/svg">
<path d="M10.4001 2.66797H21.6001C25.8667 2.66797 29.3334 6.13464 29.3334 10.4013V21.6013C29.3334 23.6523 28.5187 25.6193 27.0684 27.0696C25.6181 28.5199 23.6511 29.3346 21.6001 29.3346H10.4001C6.13341 29.3346 2.66675 25.868 2.66675 21.6013V10.4013C2.66675 8.35029 3.48151 6.38329 4.93179 4.93301C6.38207 3.48273 8.34907 2.66797 10.4001 2.66797ZM10.1334 5.33464C8.86037 5.33464 7.63948 5.84035 6.7393 6.74052C5.83913 7.6407 5.33341 8.8616 5.33341 10.1346V21.868C5.33341 24.5213 7.48008 26.668 10.1334 26.668H21.8667C23.1398 26.668 24.3607 26.1623 25.2609 25.2621C26.161 24.3619 26.6667 23.141 26.6667 21.868V10.1346C26.6667 7.4813 24.5201 5.33464 21.8667 5.33464H10.1334ZM23.0001 7.33464C23.4421 7.33464 23.866 7.51023 24.1786 7.82279C24.4912 8.13535 24.6667 8.55927 24.6667 9.0013C24.6667 9.44333 24.4912 9.86725 24.1786 10.1798C23.866 10.4924 23.4421 10.668 23.0001 10.668C22.5581 10.668 22.1341 10.4924 21.8216 10.1798C21.509 9.86725 21.3334 9.44333 21.3334 9.0013C21.3334 8.55927 21.509 8.13535 21.8216 7.82279C22.1341 7.51023 22.5581 7.33464 23.0001 7.33464ZM16.0001 9.33463C17.7682 9.33464 19.4639 10.037 20.7141 11.2873C21.9644 12.5375 22.6667 14.2332 22.6667 16.0013C22.6667 17.7694 21.9644 19.4651 20.7141 20.7153C19.4639 21.9656 17.7682 22.668 16.0001 22.668C14.232 22.668 12.5363 21.9656 11.286 20.7153C10.0358 19.4651 9.33341 17.7694 9.33341 16.0013C9.33341 14.2332 10.0358 12.5375 11.286 11.2873C12.5363 10.037 14.232 9.33464 16.0001 9.33463ZM16.0001 12.0013C14.9392 12.0013 13.9218 12.4227 13.1717 13.1729C12.4215 13.923 12.0001 14.9404 12.0001 16.0013C12.0001 17.0622 12.4215 18.0796 13.1717 18.8297C13.9218 19.5799 14.9392 20.0013 16.0001 20.0013C17.0609 20.0013 18.0784 19.5799 18.8285 18.8297C19.5787 18.0796 20.0001 17.0622 20.0001 16.0013C20.0001 14.9404 19.5787 13.923 18.8285 13.1729C18.0784 12.4227 17.0609 12.0013 16.0001 12.0013Z" fill="#191918"/>
</svg>
