<svg width="32" height="32" viewBox="0 0 32 32" fill="none" xmlns="http://www.w3.org/2000/svg">
<path d="M25.4001 6.54804C24.1775 5.31351 22.7214 4.33466 21.1167 3.66852C19.5121 3.00239 17.7908 2.66228 16.0534 2.66804C8.7734 2.66804 2.84007 8.60137 2.84007 15.8814C2.84007 18.2147 3.4534 20.4814 4.60007 22.4814L2.7334 29.3347L9.7334 27.4947C11.6667 28.548 13.8401 29.108 16.0534 29.108C23.3334 29.108 29.2667 23.1747 29.2667 15.8947C29.2667 12.3614 27.8934 9.04137 25.4001 6.54804ZM16.0534 26.868C14.0801 26.868 12.1467 26.3347 10.4534 25.3347L10.0534 25.0947L5.8934 26.188L7.00007 22.1347L6.7334 21.7214C5.6368 19.9708 5.05463 17.9471 5.0534 15.8814C5.0534 9.82804 9.98673 4.89471 16.0401 4.89471C18.9734 4.89471 21.7334 6.04137 23.8001 8.12137C24.8236 9.13986 25.6346 10.3514 26.1862 11.6858C26.7378 13.0202 27.019 14.4508 27.0134 15.8947C27.0401 21.948 22.1067 26.868 16.0534 26.868ZM22.0801 18.6547C21.7467 18.4947 20.1201 17.6947 19.8267 17.5747C19.5201 17.468 19.3067 17.4147 19.0801 17.7347C18.8534 18.068 18.2267 18.8147 18.0401 19.028C17.8534 19.2547 17.6534 19.2814 17.3201 19.108C16.9867 18.948 15.9201 18.588 14.6667 17.468C13.6801 16.588 13.0267 15.508 12.8267 15.1747C12.6401 14.8414 12.8001 14.668 12.9734 14.4947C13.1201 14.348 13.3067 14.108 13.4667 13.9214C13.6267 13.7347 13.6934 13.588 13.8001 13.3747C13.9067 13.148 13.8534 12.9614 13.7734 12.8014C13.6934 12.6414 13.0267 11.0147 12.7601 10.348C12.4934 9.70804 12.2134 9.78804 12.0134 9.77471H11.3734C11.1467 9.77471 10.8001 9.85471 10.4934 10.188C10.2001 10.5214 9.34673 11.3214 9.34673 12.948C9.34673 14.5747 10.5334 16.148 10.6934 16.3614C10.8534 16.588 13.0267 19.9214 16.3334 21.348C17.1201 21.6947 17.7334 21.8947 18.2134 22.0414C19.0001 22.2947 19.7201 22.2547 20.2934 22.1747C20.9334 22.0814 22.2534 21.3747 22.5201 20.6014C22.8001 19.828 22.8001 19.1747 22.7067 19.028C22.6134 18.8814 22.4134 18.8147 22.0801 18.6547Z" fill="#191918"/>
</svg>
